<svg id="Layer_1" data-name="Layer 1" xmlns="http://www.w3.org/2000/svg" viewBox="0 0 2000 2000"><defs><style>.cls-1{fill:#fff;}</style></defs><polygon class="cls-1" points="721.57 976.55 714.96 1018.43 453.85 1018.43 477.88 1021.93 463.26 1114.6 456.65 1156.42 407.71 1156.42 414.32 1114.6 429.51 1018.43 354.32 1018.43 360.93 976.55 721.57 976.55"/><path class="cls-1" d="M1646.25,843.64l-11.51,72.78-7.44,47.23L1615.87,1036l.18.39h-.24l.06-.39-36.42-72.38-23.77-47.23-36.55-72.72v-.06H1434l-2.16,13.73-9.35,59-7.42,47.23-11.52,72.77-7.43,47.23-2.55,16.2-5.9-16.2-60.83-167.23-26.5-72.78H1289v-.06H932.53l-37.94,240.07-4.9,30.95H867.77l0,0-35-96.16-15.25-41.83H773l-15.2,41.83-35,96.16h-23l4.3-27.15,3.26-20.73a18.27,18.27,0,0,0-18.05-21.12H581.42a3.66,3.66,0,0,1-3.61-4.23l2.2-13.93H531.08l-2.85,18.16-.11.66-4.5,28.51a11,11,0,0,0,10.82,12.68H646.6a7.31,7.31,0,0,1,7.22,8.46l-2,12.54a7.27,7.27,0,0,1-7.21,6.15H517.35l-6.62,41.85H752.08l12.21-33.55h62l12.2,33.55H968.18l11.51-72.77,7.44-47.23H1128.8l26.51-72.77H998.63l7.44-47.23h156.74v-.07h33.69v.07h52.81l-57.58,13.15h-.07l-56.05,154.08-26.51,72.77h77.42l21.29-58.41h107.67l21.3,58.41h132.89l11.51-72.77,7.5-47.23,8-50.33,25.3,50.33,23.77,47.23,36.6,72.77H1682l11.51-72.77,7.44-47.23,11.5-72.77,7.44-47.23,11.51-72.78ZM779.52,1081l15.76-43.3L811,1081Zm454.73-55.72,9.6-26.39,17.8-48.93L1289,1025.3Z"/><polygon class="cls-1" points="345.94 976.79 324.19 1114.58 317.58 1156.42 268.64 1156.42 275.26 1114.58 297.07 976.54 344.33 976.54 345.94 976.79"/></svg>